<svg width="100" height="100" viewBox="0 0 100 100" fill="none" xmlns="http://www.w3.org/2000/svg">
<path d="M32.855 14.628C33.2035 13.9041 34.2198 13.8659 34.6216 14.5616L41.2261 26.0001H29.7935C29.0237 26.0001 28.5424 26.8334 28.9273 27.5001L37.0103 41.5001C37.1186 41.6876 37.2832 41.83 37.4751 41.9142L31.1118 55.132C30.4726 56.4597 31.4401 57.9999 32.9136 58.0001H56.1235C56.4808 58.0001 56.8111 58.1907 56.9897 58.5001L65.0728 72.5001C65.4573 73.1667 64.9761 73.9999 64.2065 74.0001H28.1392C17.0863 74 9.82982 62.4521 14.6245 52.4933L32.855 14.628Z" fill="url(#paint0_linear_238_4253)"/>
<path d="M61.1448 85.3728C60.796 86.0961 59.7789 86.1338 59.3773 85.4382L52.7728 73.9997L64.2064 73.9997C64.9762 73.9997 65.4575 73.1664 65.0726 72.4997L56.9905 58.4997C56.8821 58.312 56.7169 58.1698 56.5247 58.0856L62.888 44.8678C63.5273 43.54 62.559 41.9997 61.0853 41.9997L37.8763 41.9996C37.5192 41.9995 37.1886 41.8089 37.0101 41.4996L28.9271 27.4996C28.5427 26.8331 29.0239 25.9999 29.7933 25.9996L84.5443 25.9996C84.8641 25.9998 85.1596 26.1709 85.3197 26.4479L93.433 40.4996C93.8178 41.1663 93.3364 41.9995 92.5668 41.9997L82.0267 41.9997L61.1448 85.3728Z" fill="white"/>
<path d="M61.1448 85.3728C60.796 86.0961 59.7789 86.1338 59.3773 85.4382L52.7728 73.9997L64.2064 73.9997C64.9762 73.9997 65.4575 73.1664 65.0726 72.4997L56.9905 58.4997C56.8821 58.312 56.7169 58.1698 56.5247 58.0856L62.888 44.8678C63.5273 43.54 62.559 41.9997 61.0853 41.9997L37.8763 41.9996C37.5192 41.9995 37.1886 41.8089 37.0101 41.4996L28.9271 27.4996C28.5427 26.8331 29.0239 25.9999 29.7933 25.9996L84.5443 25.9996C84.8641 25.9998 85.1596 26.1709 85.3197 26.4479L93.433 40.4996C93.8178 41.1663 93.3364 41.9995 92.5668 41.9997L82.0267 41.9997L61.1448 85.3728Z" fill="#CD011D"/>
<defs>
<linearGradient id="paint0_linear_238_4253" x1="35.1035" y1="12.9228" x2="35.1035" y2="74" gradientUnits="userSpaceOnUse">
<stop stop-color="#496FFE"/>
<stop offset="1" stop-color="#032B71"/>
</linearGradient>
</defs>
</svg>
